# xmcd
#
# Track frame offsets:
#	150
#	16857
#	32307
#	48683
#	57620
#	72833
#	96297
#	105746
#	116113
#	126422
#	134094
#	158327
#	174739
#
# Disc length: 2533 seconds
#
# Revision: 0
# Processed by: cddbd v1.5.2PL0 Copyright (c) Steve Scherf et al.
# Submitted via: dBpowerAMP V4.0
#
DISCID=b809e30d
DTITLE=Various Artist - Christmas Trail
DYEAR=2006
DGENRE=Country
TTITLE0=Sons of the San Joaquin - It Came Upon A Midnight Clear
TTITLE1=Don Edwards - Ridin' Up The Christmas Trail
TTITLE2=Rich O'Brien - Silent Night
TTITLE3=Waddie Mitchell - A Cowboy Night Before Christmas
TTITLE4=Cowboy Celtic - O Little Town Of Bethleem
TTITLE5=Michael Martin Murphy - Cowboy Christmas Ball
TTITLE6=Don Edwards and Peter Rowan - Rudolph The Red Nosed Reindeer
TTITLE7=Rich O'Brien - Here Comes Santa Claus
TTITLE8=Wyllie Gustafson and Kelly Willis - Away In A Manger
TTITLE9=Waddie Mitchell - Christmas Letter
TTITLE10=Son of the San Joaquin - O Holy Night
TTITLE11=Cowboy Celtic - Have Yourself A Merry Little Christmas
TTITLE12=Don Edwards with Norman Blake - Every Day Is Christmas In The West
EXTD=Christmas Trail - A Western \nJubilee Christmas, 2006
EXTT0=
EXTT1=
EXTT2=
EXTT3=
EXTT4=
EXTT5=
EXTT6=
EXTT7=
EXTT8=
EXTT9=
EXTT10=
EXTT11=
EXTT12=
PLAYORDER=
